<?xml version="1.0" encoding="UTF-8"?>
<svg id="Layer_1" data-name="Layer 1" xmlns="http://www.w3.org/2000/svg" viewBox="0 0 752.99 201.12">
  <defs>
    <style>
      .cls-1 {
        letter-spacing: -.05em;
      }

      .cls-2 {
        letter-spacing: -.02em;
      }

      .cls-3, .cls-4 {
        stroke-width: 0px;
      }

      .cls-3, .cls-5 {
        fill: #1d1d1f;
      }

      .cls-4 {
        fill: #e8b22a;
      }

      .cls-5 {
        font-family: AtypTEST-Variable, 'Atyp TEST';
        font-size: 50.19px;
        font-variation-settings: 'wght' 40, 'ital' 0, 'opsz' 0;
      }
    </style>
  </defs>
  <g>
    <g>
      <path class="cls-4" d="M181.61,157.12c.03,3.94-1.35,7.44-3.3,10.74-1.48,2.56-3.12,5.02-4.75,7.47-.26.4-.92.74-1.39.74-8.56.05-17.12.07-25.69.02-.36,0-1.06-.49-1.02-.71.31-3.42.97-6.73,3.74-9.17,2.33-2.05,5.06-2.97,8.1-3.13.84-.05,1.68-.03,2.52-.02,3.32.02,5.97-2.26,6.09-5.63.17-4.09.2-8.22-.03-12.31-.26-4.62-4.6-8.48-9.77-8.79-3.61-.21-7.24-.2-10.86-.2-9.96-.02-19.95.02-29.91.05-.43,0-.86.05-1.29.07-.1.18-.2.36-.31.53,1.22,1.17,2.34,2.46,3.66,3.48,2.95,2.24,6.38,3.12,10.06,3.1,6.3-.03,12.62-.03,18.92-.05h2.11c-.3.66-.46,1.07-.68,1.47-5.35,9.55-10.79,19.04-15.97,28.67-1.15,2.13-2.39,2.76-4.67,2.71-7.28-.12-14.57-.02-21.84-.02-2.13.02-2.13-.02-1.8-2.16,1.04-6.83,5.25-10.59,12.19-10.87,1.27-.05,2.56.08,3.83-.03.49-.05,1.14-.41,1.4-.84.76-1.25,1.37-2.62,2.11-4.07-.53-.13-.86-.23-1.19-.28-11.88-1.8-20.16-8.28-25.03-19.22-1.14-2.56-.43-2.11-3.33-2.16-2.56-.05-5.13.03-7.65-.31-6.88-.99-11.81-6.75-12.32-14.06-.63-8.86,2.29-16.61,7.69-23.46,3.91-4.95,8.1-9.67,12.18-14.48,5.03-5.92,9.06-12.44,10.66-20.14,2.89-13.92.2-26.58-9.8-37.04-7.7-8.07-17.5-11.56-28.59-11.78-5.92-.12-11.61.91-17.06,3.09,5.86-3.65,9.77-10.13,9.77-17.54v-.25c13.61-1.83,26.92,1.06,39.64,9.67,15.89,10.74,23,26.5,22.68,45.6-.2,13.21-5.23,24.65-13.26,34.86-3.58,4.52-7.54,8.74-11.3,13.13-3.17,3.7-5.72,7.75-6.55,12.65-.21,1.39-.15,2.8-.2,4.22-.02.81.35,1.19,1.2,1.15,1.77-.05,3.53-.07,5.3-.07,19.68,0,39.35.03,59.03,0,7.8-.02,14.57,2.46,20.04,8.05,4.19,4.29,6.63,9.4,6.6,15.54-.02,3.93-.03,7.85.02,11.78Z"/>
      <path class="cls-4" d="M37.33,70.57c-1.22-1.83-2.21-3.5-3.36-5.04-2.58-3.45-6.3-4.82-10.37-5.48-2.03-.33-2.03-.33-2.14-2.33-.1-1.79-.21-3.58-.33-5.69.79.39,1.31.64,1.83.91,3.19,1.67,6.54,2.64,10.17,2.35,2.09-.17,3.96-.86,5.44-2.4,1.36-1.42,1.68-3.23.88-5.03-.15.02-.35,0-.47.09-3.66,2.76-7.82,3.07-12.11,2.28-2.16-.4-4.27-1.07-6.37-1.75-.42-.14-.89-.84-.92-1.31-.17-2.86-.18-5.73-.32-8.6-.05-.96.32-1.28,1.22-1.46,3.59-.72,7.17-1.49,10.73-2.32.64-.15,1.39-.51,1.76-1.01,6.16-8.42,14.89-12.2,24.84-13.56,10.65-1.46,20.54.69,28.95,7.62,8.76,7.2,12.34,16.82,12.01,28-.24,8.03-2.96,15.24-7.78,21.56-4.33,5.68-9.01,11.09-13.51,16.63-3.34,4.12-6.53,8.36-8.49,13.35-2.9,7.37-3.6,14.86-.38,22.29,2.94,6.79,8.17,10.91,15.49,12.29.39.07.78.15,1.16.24.08.02.13.11.32.26-.16.38-.31.83-.53,1.24-5.83,10.53-11.69,21.05-17.5,31.6-.48.88-1.16.81-1.89.81-7.15.02-14.29.03-21.44.04-1.31,0-2.63,0-3.91,0-.92-4.35,2.48-10.19,6.85-12,2.56-1.06,5.24-1.18,7.94-.93,1.11.1,1.65-.28,2.15-1.23,2-3.78,4.07-7.52,6.17-11.25.53-.93.61-1.56-.28-2.38-9.78-9.02-13.14-20.33-11.76-33.32,1.06-10.02,5.51-18.49,11.77-26.16,4.57-5.6,9.31-11.08,13.75-16.79,4.27-5.48,6.59-11.72,6.2-18.81-.63-11.5-9.1-19.09-20.62-18.49-3.54.19-6.89.99-9.93,2.87-.51.32-.99.7-1.55,1.1.22.3.34.54.53.7,6.13,5.42,5.92,13.76,2.24,19.67-2.11,3.38-5.02,5.9-8.56,7.67-2.63,1.32-5.32,2.53-7.91,3.76Z"/>
      <path class="cls-4" d="M74.01,65.63c-2.33,4.47-5.79,8.08-8.97,11.93-5.28,6.38-10.91,12.54-14.9,19.86-7.23,13.18-7.95,26.56-1.42,40.01l-12.26,21.25.13.07c-3.12,5.51-6.24,11.02-9.37,16.53-.23.4-.86.79-1.32.79-8.25.07-16.5.05-24.75.07-.92.02-1.3-.3-1.11-1.24.12-.51.12-1.06.2-1.58.92-6.3,4.88-9.85,11.27-10.08.49-.02.99-.12,1.45,0,2.41.54,3.51-.68,4.62-2.69,4.24-7.74,8.66-15.38,13.08-23.01.64-1.12.45-2.08.13-3.13-2.31-7.65-2.59-15.46-1.55-23.33,1.39-10.46,5.79-19.7,12.18-27.95,4.06-5.26,8.55-10.2,12.92-15.21,3.02-3.45,5.81-7.03,6.76-11.65,1.01-4.88.58-9.57-2.18-13.87-.2-.33-.35-.68-.56-1.11,6.8-2.64,17.09,0,18.44,10.95.58,4.75-.63,9.19-2.8,13.4Z"/>
      <path class="cls-4" d="M135.8,52.55c-.06,1.13-.11,1.78-.12,2.43-.05,2.47-.21,4.94-.12,7.4.3,8.33,8.3,12.93,13.92,13.04,4.5.09,9.01-.04,13.49.29,8.27.61,15.57,6.36,17.83,13.71,3.98,12.97-5.45,25.6-19.29,25.7-11.38.08-22.76-.03-34.14-.04-9.7,0-19.41.03-29.11.05-.48,0-.97,0-1.61,0,.13-.41.19-.73.32-1.03,3.77-8.7,10.61-13.28,19.87-13.65,10.13-.41,20.29-.14,30.43-.17,3.71,0,7.41,0,11.12,0,.66,0,1.32-.01,1.98-.04,3.05-.14,5.25-2.09,5.29-4.67.04-2.66-2.26-4.95-5.28-5.04-3.83-.11-7.67-.05-11.51-.09-6.71-.07-12.76-2.11-18.03-6.28-4.24-3.36-7.22-7.61-8.28-13-1.55-7.89,1.16-13.25,8.42-16.73,1.45-.69,2.99-1.18,4.82-1.89Z"/>
    </g>
    <path class="cls-4" d="M58.4.52v.25c0,7.41-3.91,13.89-9.77,17.53l-.02.02c-.73.28-1.45.59-2.18.92-.25.1-.48.21-.73.31-1.37.6-1.71.75-2.11.08L54.24,1.22c1.39-.28,2.78-.51,4.16-.7Z"/>
  </g>
  <g>
    <g>
      <path class="cls-3" d="M246.2,60.55h-16.62c-.69,0-1.32.42-1.57,1.07l-26.96,68.63h17.03l5.25-13.74h28.15l5.25,13.74h18.02l-26.96-68.63c-.25-.65-.88-1.07-1.57-1.07ZM229,101.56l8.38-21.97,8.38,21.97h-16.77Z"/>
      <path class="cls-3" d="M337.45,60.55l-25.5,68.66c-.23.63-.83,1.04-1.5,1.04h-16.7c-.67,0-1.27-.42-1.5-1.04l-25.5-68.66h18.02l17.82,50.71,17.82-50.71h17.03Z"/>
      <path class="cls-3" d="M342.43,60.54h16.93v69.7h-16.93V60.54Z"/>
      <path class="cls-3" d="M369.32,60.54h28.98c6.77,0,12.88,1.53,18.32,4.58,5.44,3.05,9.71,7.24,12.8,12.55,3.09,5.31,4.63,11.22,4.63,17.72s-1.54,12.41-4.63,17.72c-3.09,5.31-7.35,9.49-12.8,12.55-5.44,3.05-11.55,4.58-18.32,4.58h-28.98V60.54ZM407.16,112.77c2.99-1.69,5.29-4.05,6.92-7.07,1.63-3.02,2.44-6.45,2.44-10.31s-.81-7.28-2.44-10.31c-1.63-3.02-3.93-5.38-6.92-7.07-2.99-1.69-6.44-2.54-10.35-2.54h-10.56v39.83h10.56c3.92,0,7.37-.85,10.35-2.54Z"/>
      <path class="cls-3" d="M474.87,113.79v-54.53h-15.11v69.7h37.41l8.57-14.84.17-.33h-31.04Z"/>
      <path class="cls-3" d="M512.71,59.26h15.17v69.7h-15.17V59.26Z"/>
      <path class="cls-3" d="M542.48,75.94c3.25-5.48,7.68-9.79,13.29-12.94,5.61-3.15,11.83-4.73,18.67-4.73s13.06,1.58,18.67,4.73c5.61,3.16,10.04,7.47,13.29,12.94,3.25,5.48,4.88,11.53,4.88,18.17s-1.63,12.7-4.88,18.17c-3.25,5.48-7.68,9.79-13.29,12.94-5.61,3.15-11.83,4.73-18.67,4.73s-13.06-1.58-18.67-4.73c-5.61-3.15-10.04-7.47-13.29-12.94-3.26-5.48-4.88-11.53-4.88-18.17s1.63-12.69,4.88-18.17ZM557.67,104.42c1.69,3.09,4.02,5.52,6.97,7.32,2.95,1.79,6.22,2.69,9.81,2.69s6.85-.9,9.81-2.69c2.95-1.79,5.28-4.23,6.97-7.32,1.69-3.09,2.54-6.52,2.54-10.31s-.85-7.22-2.54-10.31c-1.69-3.09-4.02-5.53-6.97-7.32-2.95-1.79-6.22-2.69-9.81-2.69s-6.86.9-9.81,2.69c-2.95,1.79-5.28,4.23-6.97,7.32-1.69,3.09-2.54,6.52-2.54,10.31s.85,7.22,2.54,10.31Z"/>
      <path class="cls-3" d="M682.99,59.27v69.7h-14.69s.08.11-.33-.45l-31.79-43.19v43.64h-15.2V59.27h14.2c.32,0,.62.15.81.41l30.07,40.81v-40.45c0-.42.34-.76.76-.76h16.18Z"/>
    </g>
    <polygon class="cls-3" points="719.87 114.11 752.99 114.11 752.99 114.14 744.35 129.1 701.01 129.1 693.53 128.96 726.29 74.13 696.7 74.13 703.06 63.1 704.38 60.81 705.35 59.13 752.99 59.13 743.25 75.35 719.87 114.11"/>
  </g>
  <text class="cls-5" transform="translate(198.9 179.66)"><tspan class="cls-2" x="0" y="0">C</tspan><tspan x="38.19" y="0">ome </tspan><tspan class="cls-1" x="160.3" y="0">r</tspan><tspan x="174.81" y="0">oar with us</tspan></text>
</svg>